# Blender v2.90.1 OBJ File: ''
# www.blender.org
mtllib CreatedLightSwitch.mtl
o Cube_Cube.002
v -1.000000 -1.000000 1.000000
v -1.000000 1.000000 1.000000
v -1.000000 -1.000000 -1.000000
v -1.000000 1.000000 -1.000000
v -0.901144 -1.002386 0.993812
v -0.901144 0.997613 0.993812
v -0.901144 -1.002386 -1.006188
v -0.901144 0.997613 -1.006188
v -0.110273 0.425651 -0.287804
v -0.927479 -0.339801 -0.340229
v -0.132129 0.407998 0.327567
v -0.949335 -0.357453 0.275142
v -0.230581 0.552709 -0.300863
v -1.000010 -0.088684 -0.314330
v -0.252437 0.535057 0.314508
v -1.001018 -0.048518 0.255178
vt 0.375000 0.000000
vt 0.625000 0.000000
vt 0.625000 0.250000
vt 0.375000 0.250000
vt 0.625000 0.500000
vt 0.375000 0.500000
vt 0.625000 0.750000
vt 0.375000 0.750000
vt 0.625000 1.000000
vt 0.375000 1.000000
vt 0.125000 0.500000
vt 0.125000 0.750000
vt 0.875000 0.500000
vt 0.875000 0.750000
vt 0.375000 0.000000
vt 0.625000 0.000000
vt 0.625000 0.250000
vt 0.375000 0.250000
vt 0.625000 0.500000
vt 0.375000 0.500000
vt 0.625000 0.750000
vt 0.375000 0.750000
vt 0.625000 1.000000
vt 0.375000 1.000000
vt 0.125000 0.500000
vt 0.125000 0.750000
vt 0.875000 0.500000
vt 0.875000 0.750000
vn -1.0000 0.0000 0.0000
vn -0.0625 0.0000 -0.9980
vn 1.0000 0.0000 0.0000
vn 0.0625 0.0000 0.9980
vn -0.0241 -0.9997 0.0000
vn 0.0241 0.9997 0.0000
vn -0.6835 0.7299 -0.0033
vn 0.1014 -0.0353 -0.9942
vn 0.6270 -0.7786 0.0269
vn -0.0079 -0.0379 0.9992
vn -0.7230 -0.6893 -0.0455
vn 0.9762 0.2164 0.0147
usemtl None
s off
f 1/1/1 2/2/1 4/3/1 3/4/1
f 3/4/2 4/3/2 8/5/2 7/6/2
f 7/6/3 8/5/3 6/7/3 5/8/3
f 5/8/4 6/7/4 2/9/4 1/10/4
f 3/11/5 7/6/5 5/8/5 1/12/5
f 8/5/6 4/13/6 2/14/6 6/7/6
f 9/15/7 10/16/7 12/17/7 11/18/7
f 11/18/8 12/17/8 16/19/8 15/20/8
f 15/20/9 16/19/9 14/21/9 13/22/9
f 13/22/10 14/21/10 10/23/10 9/24/10
f 11/25/11 15/20/11 13/22/11 9/26/11
f 16/19/12 12/27/12 10/28/12 14/21/12
